<svg width="42" height="43" viewBox="0 0 24 25" fill="none" xmlns="http://www.w3.org/2000/svg">
<ellipse cx="12" cy="12.2727" rx="12" ry="12.2727" fill="#EE2A52"/>
<path d="M17.3884 13.885C17.3249 13.732 17.1493 13.6594 16.9963 13.7229L14.5024 14.7576C14.3494 14.8211 14.2768 14.9966 14.3403 15.1497C14.4038 15.3027 14.5793 15.3753 14.7324 15.3118L16.9491 14.3921L17.8689 16.6088C17.9324 16.7619 18.1079 16.8345 18.2609 16.771C18.414 16.7075 18.4866 16.5319 18.4231 16.3789L17.3884 13.885ZM13.3395 18.5237C14.655 18.2918 15.483 17.6554 16.0755 16.8296C16.6527 16.025 17.0096 15.0308 17.3885 14.1146L16.834 13.8853C16.4372 14.845 16.1132 15.7478 15.588 16.4799C15.0779 17.1908 14.3818 17.7307 13.2353 17.9328L13.3395 18.5237Z" fill="white"/>
<path d="M10.6495 18.5939C10.8056 18.5385 10.8873 18.367 10.8319 18.2109L9.92914 15.6663C9.87374 15.5101 9.70225 15.4284 9.5461 15.4838C9.38995 15.5392 9.30828 15.7107 9.36367 15.8669L10.1661 18.1288L7.90426 18.9312C7.74811 18.9866 7.66644 19.1581 7.72184 19.3143C7.77724 19.4704 7.94873 19.5521 8.10488 19.4967L10.6495 18.5939ZM6.22903 14.3078C6.39182 15.6336 6.98402 16.4939 7.77762 17.1287C8.5509 17.7473 9.52511 18.1557 10.4202 18.582L10.6782 18.0403C9.74065 17.5938 8.856 17.223 8.15242 16.6602C7.46914 16.1136 6.96644 15.3902 6.82456 14.2347L6.22903 14.3078Z" fill="white"/>
<path d="M6.65646 11.4475C6.74799 11.5856 6.93415 11.6234 7.07226 11.5318L9.32288 10.0403C9.46099 9.94877 9.49875 9.76261 9.40722 9.6245C9.31569 9.48639 9.12953 9.44863 8.99142 9.54016L6.99087 10.866L5.66505 8.86543C5.57352 8.72732 5.38737 8.68956 5.24926 8.78109C5.11115 8.87262 5.07339 9.05878 5.16492 9.19688L6.65646 11.4475ZM9.74585 6.12146C8.49879 6.60016 7.80738 7.38288 7.38339 8.30647C6.97024 9.20645 6.8096 10.2505 6.61252 11.2221L7.20054 11.3414C7.40698 10.3237 7.55277 9.37564 7.92868 8.5568C8.29373 7.76158 8.87398 7.09882 9.96087 6.68161L9.74585 6.12146Z" fill="white"/>
<path d="M13.9348 6.32331C13.7731 6.35926 13.6711 6.51952 13.7071 6.68126L14.293 9.31692C14.329 9.47865 14.4892 9.58062 14.651 9.54466C14.8127 9.50871 14.9147 9.34845 14.8787 9.18671L14.3579 6.8439L16.7007 6.32308C16.8624 6.28712 16.9644 6.12686 16.9285 5.96512C16.8925 5.80339 16.7322 5.70142 16.5705 5.73737L13.9348 6.32331ZM17.8 11.1162C17.8 9.78039 17.317 8.85441 16.6067 8.12759C15.9146 7.41937 14.9974 6.89523 14.161 6.36305L13.8389 6.86927C14.715 7.4267 15.5479 7.90257 16.1776 8.54696C16.7892 9.17275 17.2 9.95197 17.2 11.1162L17.8 11.1162Z" fill="white"/>
</svg>
